<svg xmlns="http://www.w3.org/2000/svg" width="1200" height="700" viewBox="0 0 1200 700"><rect width="1200" height="700" fill="#F7F1E6"/><rect x="46" y="40" width="204" height="34" rx="17" fill="#C84C31" stroke="#C84C31" stroke-width="0"/><text x="148.0" y="63" fill="#ffffff" font-family="Microsoft YaHei, 'Noto Sans SC', sans-serif" font-size="18" font-weight="700" text-anchor="middle">RSI 背离与情绪极端</text><text x="46" y="112" fill="#253238" font-family="Microsoft YaHei, 'Noto Sans SC', sans-serif" font-size="34" font-weight="800" text-anchor="start">摆动指数和相反意见理论</text><polyline points="110,320 240,280 360,290 500,220 650,235 820,180 1000,195" fill="none" stroke="#C84C31" stroke-width="5" stroke-linejoin="round" stroke-linecap="round"/><polyline points="110,560 240,520 360,525 500,530 650,500 820,510 1000,490" fill="none" stroke="#0F766E" stroke-width="5" stroke-linejoin="round" stroke-linecap="round"/><line x1="90" y1="540" x2="1040" y2="540" stroke="#94A3B8" stroke-width="3" stroke-linecap="round" stroke-dasharray="10 10"/><line x1="90" y1="470" x2="1040" y2="470" stroke="#CBD5E1" stroke-width="2" stroke-linecap="round" stroke-dasharray="10 10"/><line x1="90" y1="610" x2="1040" y2="610" stroke="#CBD5E1" stroke-width="2" stroke-linecap="round" stroke-dasharray="10 10"/><line x1="780" y1="190" x2="780" y2="500" stroke="#C84C31" stroke-width="4" stroke-linecap="round"/><polygon points="780,500 773.0,487.87564434701784 787.0,487.87564434701784" fill="#C84C31"/><text x="820" y="360" fill="#C84C31" font-family="Microsoft YaHei, 'Noto Sans SC', sans-serif" font-size="22" font-weight="700" text-anchor="start">价格创新高
指标未创新高</text></svg>