<svg xmlns="http://www.w3.org/2000/svg" width="1200" height="700" viewBox="0 0 1200 700"><rect width="1200" height="700" fill="#F7F1E6"/><rect x="46" y="40" width="140" height="34" rx="17" fill="#0F766E" stroke="#0F766E" stroke-width="0"/><text x="116.0" y="63" fill="#ffffff" font-family="Microsoft YaHei, 'Noto Sans SC', sans-serif" font-size="18" font-weight="700" text-anchor="middle">三大前提三角形</text><text x="46" y="112" fill="#253238" font-family="Microsoft YaHei, 'Noto Sans SC', sans-serif" font-size="34" font-weight="800" text-anchor="start">技术分析的理论基础</text><circle cx="600" cy="260" r="94" fill="#FFF8EE" stroke="#0F766E" stroke-width="4"/><text x="600" y="248" fill="#253238" font-family="Microsoft YaHei, 'Noto Sans SC', sans-serif" font-size="26" font-weight="500" text-anchor="middle">市场行为 包容一</text><text x="600" y="282" fill="#253238" font-family="Microsoft YaHei, 'Noto Sans SC', sans-serif" font-size="26" font-weight="500" text-anchor="middle">切</text><circle cx="360" cy="500" r="90" fill="#FFFDF8" stroke="#C84C31" stroke-width="4"/><text x="360" y="490" fill="#253238" font-family="Microsoft YaHei, 'Noto Sans SC', sans-serif" font-size="26" font-weight="500" text-anchor="middle">趋势 会延续</text><circle cx="840" cy="500" r="90" fill="#FFFDF8" stroke="#C84C31" stroke-width="4"/><text x="840" y="490" fill="#253238" font-family="Microsoft YaHei, 'Noto Sans SC', sans-serif" font-size="26" font-weight="500" text-anchor="middle">历史 会重演</text><line x1="560" y1="334" x2="405" y2="440" stroke="#0F766E" stroke-width="4" stroke-linecap="round"/><polygon points="405,440 411.05645128422753,427.37782119276636 418.9593531402877,438.9339512653071" fill="#0F766E"/><line x1="640" y1="334" x2="795" y2="440" stroke="#0F766E" stroke-width="4" stroke-linecap="round"/><polygon points="795,440 781.0406468597123,438.9339512653071 788.9435487157724,427.37782119276636" fill="#0F766E"/><line x1="440" y1="500" x2="760" y2="500" stroke="#C84C31" stroke-width="4" stroke-linecap="round"/><polygon points="760,500 747.8756443470179,507.0 747.8756443470179,493.0" fill="#C84C31"/></svg>