<?xml version="1.0" encoding="UTF-8"?>
<svg xmlns="http://www.w3.org/2000/svg" width="1600" height="900" viewBox="0 0 1600 900">
<rect width="1600" height="900" fill="#FFFDF9"/>

    <rect x="70" y="50" width="1460" height="800" rx="42" fill="#FFF8F1"/>
    <text x="120" y="132" font-size="52" font-family="Microsoft YaHei" font-weight="700" fill="#2D3748">《交易心理分析》全书路线图</text>
    <text x="120" y="180" font-size="28" font-family="Microsoft YaHei" fill="#486581">从分析工具，走到心理结构，再走到概率与信念的重建。</text>
    
      <rect x="110" y="170" width="300" height="136" rx="24" fill="#ffffff" opacity="0.95" stroke="#E76F51" stroke-width="4"/>
      <text x="138" y="216" font-size="28" font-family="Microsoft YaHei" font-weight="700" fill="#7D2E22">第 1 章</text>
      <text x="138" y="258" font-size="24" font-family="Microsoft YaHei" fill="#243b53">成功之路：基本面、技术面或思想分析？</text>
      <rect x="465" y="170" width="300" height="136" rx="24" fill="#ffffff" opacity="0.95" stroke="#F4A261" stroke-width="4"/>
      <text x="493" y="216" font-size="28" font-family="Microsoft YaHei" font-weight="700" fill="#8B4E1B">第 2 章</text>
      <text x="493" y="258" font-size="24" font-family="Microsoft YaHei" fill="#243b53">交易的诱惑（和危险）</text>
      <rect x="820" y="170" width="300" height="136" rx="24" fill="#ffffff" opacity="0.95" stroke="#2A9D8F" stroke-width="4"/>
      <text x="848" y="216" font-size="28" font-family="Microsoft YaHei" font-weight="700" fill="#165B53">第 3 章</text>
      <text x="848" y="258" font-size="24" font-family="Microsoft YaHei" fill="#243b53">自己承担责任</text>
      <rect x="1175" y="170" width="300" height="136" rx="24" fill="#ffffff" opacity="0.95" stroke="#264653" stroke-width="4"/>
      <text x="1203" y="216" font-size="28" font-family="Microsoft YaHei" font-weight="700" fill="#17313B">第 4 章</text>
      <text x="1203" y="258" font-size="24" font-family="Microsoft YaHei" fill="#243b53">持续一致性：一种思想状态</text>
      <rect x="110" y="380" width="300" height="136" rx="24" fill="#ffffff" opacity="0.95" stroke="#8AB17D" stroke-width="4"/>
      <text x="138" y="426" font-size="28" font-family="Microsoft YaHei" font-weight="700" fill="#48663B">第 5 章</text>
      <text x="138" y="468" font-size="24" font-family="Microsoft YaHei" fill="#243b53">认知的动力</text>
      <rect x="465" y="380" width="300" height="136" rx="24" fill="#ffffff" opacity="0.95" stroke="#577590" stroke-width="4"/>
      <text x="493" y="426" font-size="28" font-family="Microsoft YaHei" font-weight="700" fill="#2D4255">第 6 章</text>
      <text x="493" y="468" font-size="24" font-family="Microsoft YaHei" fill="#243b53">市场的角度</text>
      <rect x="820" y="380" width="300" height="136" rx="24" fill="#ffffff" opacity="0.95" stroke="#E9C46A" stroke-width="4"/>
      <text x="848" y="426" font-size="28" font-family="Microsoft YaHei" font-weight="700" fill="#866A1C">第 7 章</text>
      <text x="848" y="468" font-size="24" font-family="Microsoft YaHei" fill="#243b53">交易者的优势：考虑概率</text>
      <rect x="1175" y="380" width="300" height="136" rx="24" fill="#ffffff" opacity="0.95" stroke="#B56576" stroke-width="4"/>
      <text x="1203" y="426" font-size="28" font-family="Microsoft YaHei" font-weight="700" fill="#6E2C39">第 8 章</text>
      <text x="1203" y="468" font-size="24" font-family="Microsoft YaHei" fill="#243b53">和信念一起工作</text>
      <rect x="110" y="590" width="300" height="136" rx="24" fill="#ffffff" opacity="0.95" stroke="#6D597A" stroke-width="4"/>
      <text x="138" y="636" font-size="28" font-family="Microsoft YaHei" font-weight="700" fill="#3F3046">第 9 章</text>
      <text x="138" y="678" font-size="24" font-family="Microsoft YaHei" fill="#243b53">信念的天性</text>
      <rect x="465" y="590" width="300" height="136" rx="24" fill="#ffffff" opacity="0.95" stroke="#BC6C25" stroke-width="4"/>
      <text x="493" y="636" font-size="28" font-family="Microsoft YaHei" font-weight="700" fill="#6A3B14">第 10 章</text>
      <text x="493" y="678" font-size="24" font-family="Microsoft YaHei" fill="#243b53">信念对交易的影响</text>
      <rect x="820" y="590" width="300" height="136" rx="24" fill="#ffffff" opacity="0.95" stroke="#355070" stroke-width="4"/>
      <text x="848" y="636" font-size="28" font-family="Microsoft YaHei" font-weight="700" fill="#1F3045">第 11 章</text>
      <text x="848" y="678" font-size="24" font-family="Microsoft YaHei" fill="#243b53">像交易者一样思考</text>
  
</svg>