<svg xmlns="http://www.w3.org/2000/svg" width="1200" height="700" viewBox="0 0 1200 700"><rect width="1200" height="700" fill="#F7F1E6"/><rect x="46" y="40" width="220" height="34" rx="17" fill="#1D4ED8" stroke="#1D4ED8" stroke-width="0"/><text x="156.0" y="63" fill="#ffffff" font-family="Microsoft YaHei, 'Noto Sans SC', sans-serif" font-size="18" font-weight="700" text-anchor="middle">潮汐-海浪-浪花三层趋势</text><text x="46" y="112" fill="#253238" font-family="Microsoft YaHei, 'Noto Sans SC', sans-serif" font-size="34" font-weight="800" text-anchor="start">道氏理论</text><polyline points="120,500 260,420 420,470 620,260 820,320 1080,180" fill="none" stroke="#1D4ED8" stroke-width="6" stroke-linejoin="round" stroke-linecap="round"/><polyline points="120,540 210,510 300,530 420,480 540,520 680,460 820,490 960,430" fill="none" stroke="#0F766E" stroke-width="4" stroke-linejoin="round" stroke-linecap="round"/><polyline points="120,590 160,570 200,592 240,572 280,590 320,570 360,592" fill="none" stroke="#A9B6B4" stroke-width="3" stroke-linejoin="round" stroke-linecap="round"/><text x="1040" y="164" fill="#1D4ED8" font-family="Microsoft YaHei, 'Noto Sans SC', sans-serif" font-size="26" font-weight="800" text-anchor="start">主要趋势</text><text x="930" y="418" fill="#0F766E" font-family="Microsoft YaHei, 'Noto Sans SC', sans-serif" font-size="24" font-weight="800" text-anchor="start">次级趋势</text><text x="380" y="630" fill="#64748B" font-family="Microsoft YaHei, 'Noto Sans SC', sans-serif" font-size="22" font-weight="700" text-anchor="start">日常波动</text></svg>