<svg xmlns="http://www.w3.org/2000/svg" width="1200" height="700" viewBox="0 0 1200 700"><rect width="1200" height="700" fill="#F7F1E6"/><rect x="46" y="40" width="172" height="34" rx="17" fill="#0F766E" stroke="#0F766E" stroke-width="0"/><text x="132.0" y="63" fill="#ffffff" font-family="Microsoft YaHei, 'Noto Sans SC', sans-serif" font-size="18" font-weight="700" text-anchor="middle">五浪推动与三浪调整</text><text x="46" y="112" fill="#253238" font-family="Microsoft YaHei, 'Noto Sans SC', sans-serif" font-size="34" font-weight="800" text-anchor="start">艾略特波浪理论</text><polyline points="120,520 240,420 360,460 520,300 680,360 860,220 1040,300" fill="none" stroke="#0F766E" stroke-width="6" stroke-linejoin="round" stroke-linecap="round"/><polyline points="1040,300 920,380 820,340 720,420" fill="none" stroke="#C84C31" stroke-width="6" stroke-linejoin="round" stroke-linecap="round"/><circle cx="240" cy="392" r="18" fill="#FFF8EE" stroke="#D9CCB8" stroke-width="2"/><text x="240" y="400" fill="#253238" font-family="Microsoft YaHei, 'Noto Sans SC', sans-serif" font-size="20" font-weight="800" text-anchor="middle">1</text><circle cx="360" cy="432" r="18" fill="#FFF8EE" stroke="#D9CCB8" stroke-width="2"/><text x="360" y="440" fill="#253238" font-family="Microsoft YaHei, 'Noto Sans SC', sans-serif" font-size="20" font-weight="800" text-anchor="middle">2</text><circle cx="520" cy="272" r="18" fill="#FFF8EE" stroke="#D9CCB8" stroke-width="2"/><text x="520" y="280" fill="#253238" font-family="Microsoft YaHei, 'Noto Sans SC', sans-serif" font-size="20" font-weight="800" text-anchor="middle">3</text><circle cx="680" cy="332" r="18" fill="#FFF8EE" stroke="#D9CCB8" stroke-width="2"/><text x="680" y="340" fill="#253238" font-family="Microsoft YaHei, 'Noto Sans SC', sans-serif" font-size="20" font-weight="800" text-anchor="middle">4</text><circle cx="860" cy="192" r="18" fill="#FFF8EE" stroke="#D9CCB8" stroke-width="2"/><text x="860" y="200" fill="#253238" font-family="Microsoft YaHei, 'Noto Sans SC', sans-serif" font-size="20" font-weight="800" text-anchor="middle">5</text><circle cx="920" cy="352" r="18" fill="#FFF8EE" stroke="#D9CCB8" stroke-width="2"/><text x="920" y="360" fill="#253238" font-family="Microsoft YaHei, 'Noto Sans SC', sans-serif" font-size="20" font-weight="800" text-anchor="middle">A</text><circle cx="820" cy="312" r="18" fill="#FFF8EE" stroke="#D9CCB8" stroke-width="2"/><text x="820" y="320" fill="#253238" font-family="Microsoft YaHei, 'Noto Sans SC', sans-serif" font-size="20" font-weight="800" text-anchor="middle">B</text><circle cx="720" cy="392" r="18" fill="#FFF8EE" stroke="#D9CCB8" stroke-width="2"/><text x="720" y="400" fill="#253238" font-family="Microsoft YaHei, 'Noto Sans SC', sans-serif" font-size="20" font-weight="800" text-anchor="middle">C</text></svg>