<svg xmlns="http://www.w3.org/2000/svg" width="1200" height="700" viewBox="0 0 1200 700"><rect width="1200" height="700" fill="#F7F1E6"/><rect x="46" y="40" width="140" height="34" rx="17" fill="#8B5CF6" stroke="#8B5CF6" stroke-width="0"/><text x="116.0" y="63" fill="#ffffff" font-family="Microsoft YaHei, 'Noto Sans SC', sans-serif" font-size="18" font-weight="700" text-anchor="middle">交易系统流程图</text><text x="46" y="112" fill="#253238" font-family="Microsoft YaHei, 'Noto Sans SC', sans-serif" font-size="34" font-weight="800" text-anchor="start">计算机和交易系统</text><rect x="130" y="290" width="180" height="120" rx="24" fill="#FFFDF8" stroke="#D9CCB8" stroke-width="2"/><text x="220" y="350" fill="#253238" font-family="Microsoft YaHei, 'Noto Sans SC', sans-serif" font-size="26" font-weight="500" text-anchor="middle">规则想法</text><rect x="380" y="290" width="180" height="120" rx="24" fill="#FFFDF8" stroke="#D9CCB8" stroke-width="2"/><text x="470" y="350" fill="#253238" font-family="Microsoft YaHei, 'Noto Sans SC', sans-serif" font-size="26" font-weight="500" text-anchor="middle">回测检验</text><rect x="630" y="290" width="180" height="120" rx="24" fill="#FFFDF8" stroke="#D9CCB8" stroke-width="2"/><text x="720" y="350" fill="#253238" font-family="Microsoft YaHei, 'Noto Sans SC', sans-serif" font-size="26" font-weight="500" text-anchor="middle">执行系统</text><rect x="880" y="290" width="180" height="120" rx="24" fill="#FFFDF8" stroke="#D9CCB8" stroke-width="2"/><text x="970" y="350" fill="#253238" font-family="Microsoft YaHei, 'Noto Sans SC', sans-serif" font-size="26" font-weight="500" text-anchor="middle">复盘修正</text><line x1="310" y1="350" x2="380" y2="350" stroke="#8B5CF6" stroke-width="5" stroke-linecap="round"/><polygon points="380,350 367.87564434701784,357.0 367.87564434701784,343.0" fill="#8B5CF6"/><line x1="560" y1="350" x2="630" y2="350" stroke="#8B5CF6" stroke-width="5" stroke-linecap="round"/><polygon points="630,350 617.8756443470179,357.0 617.8756443470179,343.0" fill="#8B5CF6"/><line x1="810" y1="350" x2="880" y2="350" stroke="#8B5CF6" stroke-width="5" stroke-linecap="round"/><polygon points="880,350 867.8756443470179,357.0 867.8756443470179,343.0" fill="#8B5CF6"/></svg>