<svg xmlns="http://www.w3.org/2000/svg" width="1200" height="700" viewBox="0 0 1200 700"><rect width="1200" height="700" fill="#F7F1E6"/><rect x="46" y="40" width="140" height="34" rx="17" fill="#8B5CF6" stroke="#8B5CF6" stroke-width="0"/><text x="116.0" y="63" fill="#ffffff" font-family="Microsoft YaHei, 'Noto Sans SC', sans-serif" font-size="18" font-weight="700" text-anchor="middle">均线平滑与交叉</text><text x="46" y="112" fill="#253238" font-family="Microsoft YaHei, 'Noto Sans SC', sans-serif" font-size="34" font-weight="800" text-anchor="start">移动平均线</text><polyline points="140,540 220,500 340,520 420,420 540,450 680,300 860,360 1020,250" fill="none" stroke="#94A3B8" stroke-width="4" stroke-linejoin="round" stroke-linecap="round"/><polyline points="120,560 220,548 320,520 420,498 520,460 620,420 720,388 820,350 920,320 1020,290" fill="none" stroke="#8B5CF6" stroke-width="6" stroke-linejoin="round" stroke-linecap="round"/><polyline points="120,590 220,588 320,580 420,564 520,540 620,510 720,472 820,430 920,390 1020,350" fill="none" stroke="#C84C31" stroke-width="6" stroke-linejoin="round" stroke-linecap="round"/><circle cx="720" cy="472" r="10" fill="#C84C31" stroke="#C84C31" stroke-width="0"/><circle cx="720" cy="388" r="10" fill="#8B5CF6" stroke="#8B5CF6" stroke-width="0"/><text x="760" y="396" fill="#8B5CF6" font-family="Microsoft YaHei, 'Noto Sans SC', sans-serif" font-size="22" font-weight="800" text-anchor="start">金叉</text></svg>