<svg xmlns="http://www.w3.org/2000/svg" width="1200" height="700" viewBox="0 0 1200 700"><rect width="1200" height="700" fill="#F7F1E6"/><rect x="46" y="40" width="188" height="34" rx="17" fill="#1D4ED8" stroke="#1D4ED8" stroke-width="0"/><text x="140.0" y="63" fill="#ffffff" font-family="Microsoft YaHei, 'Noto Sans SC', sans-serif" font-size="18" font-weight="700" text-anchor="middle">长期图与商品指数视角</text><text x="46" y="112" fill="#253238" font-family="Microsoft YaHei, 'Noto Sans SC', sans-serif" font-size="34" font-weight="800" text-anchor="start">长期图表和商品指数</text><rect x="180" y="180" width="340" height="90" rx="18" fill="#FFFDF8" stroke="#D9CCB8" stroke-width="2"/><text x="250" y="220" fill="#1D4ED8" font-family="Microsoft YaHei, 'Noto Sans SC', sans-serif" font-size="24" font-weight="800" text-anchor="start">日线</text><polyline points="320,242 360,228 400,234 440,210 485,214" fill="none" stroke="#1D4ED8" stroke-width="4" stroke-linejoin="round" stroke-linecap="round"/><rect x="180" y="320" width="340" height="90" rx="18" fill="#FFFDF8" stroke="#D9CCB8" stroke-width="2"/><text x="250" y="360" fill="#1D4ED8" font-family="Microsoft YaHei, 'Noto Sans SC', sans-serif" font-size="24" font-weight="800" text-anchor="start">周线</text><polyline points="320,382 360,368 400,374 440,350 485,354" fill="none" stroke="#1D4ED8" stroke-width="4" stroke-linejoin="round" stroke-linecap="round"/><rect x="180" y="460" width="340" height="90" rx="18" fill="#FFFDF8" stroke="#D9CCB8" stroke-width="2"/><text x="250" y="500" fill="#1D4ED8" font-family="Microsoft YaHei, 'Noto Sans SC', sans-serif" font-size="24" font-weight="800" text-anchor="start">月线</text><polyline points="320,522 360,508 400,514 440,490 485,494" fill="none" stroke="#1D4ED8" stroke-width="4" stroke-linejoin="round" stroke-linecap="round"/><rect x="700" y="200" width="320" height="260" rx="28" fill="#FFF8EE" stroke="#0F766E" stroke-width="3"/><text x="860" y="250" fill="#0F766E" font-family="Microsoft YaHei, 'Noto Sans SC', sans-serif" font-size="28" font-weight="800" text-anchor="middle">商品指数</text><text x="860" y="300" fill="#253238" font-family="Microsoft YaHei, 'Noto Sans SC', sans-serif" font-size="22" font-weight="500" text-anchor="middle">看整体温度</text><text x="860" y="340" fill="#253238" font-family="Microsoft YaHei, 'Noto Sans SC', sans-serif" font-size="22" font-weight="500" text-anchor="middle">不只看单一品种</text><line x1="520" y1="320" x2="690" y2="320" stroke="#1D4ED8" stroke-width="5" stroke-linecap="round"/><polygon points="690,320 677.8756443470179,327.0 677.8756443470179,313.0" fill="#1D4ED8"/></svg>