<svg xmlns="http://www.w3.org/2000/svg" width="1200" height="700" viewBox="0 0 1200 700"><rect width="1200" height="700" fill="#F7F1E6"/><rect x="46" y="40" width="92" height="34" rx="17" fill="#0F766E" stroke="#0F766E" stroke-width="0"/><text x="92.0" y="63" fill="#ffffff" font-family="Microsoft YaHei, 'Noto Sans SC', sans-serif" font-size="18" font-weight="700" text-anchor="middle">第13章</text><text x="150" y="66" fill="#253238" font-family="Microsoft YaHei, 'Noto Sans SC', sans-serif" font-size="30" font-weight="800" text-anchor="start">艾略特波浪理论</text><rect x="390" y="255" width="420" height="180" rx="30" fill="#FFF8EE" stroke="#0F766E" stroke-width="4"/><text x="600" y="320" fill="#0F766E" font-family="Microsoft YaHei, 'Noto Sans SC', sans-serif" font-size="34" font-weight="800" text-anchor="middle">艾略特波浪理论</text><text x="600" y="365" fill="#253238" font-family="Microsoft YaHei, 'Noto Sans SC', sans-serif" font-size="22" font-weight="500" text-anchor="middle">波浪理论试图把市场节奏写成一种层层嵌</text><text x="600" y="395" fill="#253238" font-family="Microsoft YaHei, 'Noto Sans SC', sans-serif" font-size="22" font-weight="500" text-anchor="middle">套的语法：推动五浪，调整三浪，大小级</text><text x="600" y="425" fill="#253238" font-family="Microsoft YaHei, 'Noto Sans SC', sans-serif" font-size="22" font-weight="500" text-anchor="middle">别不断重复。</text><line x1="600" y1="350" x2="600" y2="110" stroke="#0F766E" stroke-width="4" stroke-linecap="round"/><polygon points="600,110 607.0,122.12435565298215 593.0,122.12435565298215" fill="#0F766E"/><rect x="485" y="62" width="230" height="96" rx="24" fill="#FFFDF8" stroke="#C84C31" stroke-width="3"/><text x="600" y="106" fill="#253238" font-family="Microsoft YaHei, 'Noto Sans SC', sans-serif" font-size="22" font-weight="500" text-anchor="middle">五浪与三浪</text><line x1="600" y1="350" x2="920" y2="210" stroke="#0F766E" stroke-width="4" stroke-linecap="round"/><polygon points="920,210 911.6979144756956,221.27277144038388 906.0864507994196,208.44656875175323" fill="#0F766E"/><rect x="805" y="162" width="230" height="96" rx="24" fill="#FFFDF8" stroke="#C84C31" stroke-width="3"/><text x="920" y="206" fill="#253238" font-family="Microsoft YaHei, 'Noto Sans SC', sans-serif" font-size="22" font-weight="500" text-anchor="middle">波浪层级</text><line x1="600" y1="350" x2="920" y2="490" stroke="#0F766E" stroke-width="4" stroke-linecap="round"/><polygon points="920,490 906.0864507994196,491.5534312482468 911.6979144756956,478.72722855961615" fill="#0F766E"/><rect x="805" y="442" width="230" height="96" rx="24" fill="#FFFDF8" stroke="#C84C31" stroke-width="3"/><text x="920" y="486" fill="#253238" font-family="Microsoft YaHei, 'Noto Sans SC', sans-serif" font-size="22" font-weight="500" text-anchor="middle">斐波那契关系</text><line x1="600" y1="350" x2="600" y2="590" stroke="#0F766E" stroke-width="4" stroke-linecap="round"/><polygon points="600,590 593.0,577.8756443470179 607.0,577.8756443470179" fill="#0F766E"/><rect x="485" y="542" width="230" height="96" rx="24" fill="#FFFDF8" stroke="#C84C31" stroke-width="3"/><text x="600" y="586" fill="#253238" font-family="Microsoft YaHei, 'Noto Sans SC', sans-serif" font-size="22" font-weight="500" text-anchor="middle">优势与主观性</text></svg>