<svg xmlns="http://www.w3.org/2000/svg" width="1200" height="700" viewBox="0 0 1200 700"><rect width="1200" height="700" fill="#F7F1E6"/><rect x="46" y="40" width="268" height="34" rx="17" fill="#0F766E" stroke="#0F766E" stroke-width="0"/><text x="180.0" y="63" fill="#ffffff" font-family="Microsoft YaHei, 'Noto Sans SC', sans-serif" font-size="18" font-weight="700" text-anchor="middle">价格-交易量-持仓兴趣三维关系</text><text x="46" y="112" fill="#253238" font-family="Microsoft YaHei, 'Noto Sans SC', sans-serif" font-size="34" font-weight="800" text-anchor="start">交易量和持仓兴趣</text><polyline points="120,500 260,430 400,460 560,330 760,360 1020,210" fill="none" stroke="#0F766E" stroke-width="5" stroke-linejoin="round" stroke-linecap="round"/><rect x="180" y="480" width="58" height="120" fill="#C84C31" opacity="0.45"/><rect x="300" y="420" width="58" height="180" fill="#C84C31" opacity="0.45"/><rect x="420" y="460" width="58" height="140" fill="#C84C31" opacity="0.45"/><rect x="540" y="340" width="58" height="260" fill="#C84C31" opacity="0.45"/><rect x="660" y="400" width="58" height="200" fill="#C84C31" opacity="0.45"/><rect x="780" y="260" width="58" height="340" fill="#C84C31" opacity="0.45"/><polyline points="120,620 280,590 450,560 620,500 820,470 1020,420" fill="none" stroke="#2F8F5B" stroke-width="5" stroke-linejoin="round" stroke-linecap="round"/><text x="1035" y="220" fill="#0F766E" font-family="Microsoft YaHei, 'Noto Sans SC', sans-serif" font-size="22" font-weight="800" text-anchor="start">价格</text><text x="1035" y="430" fill="#2F8F5B" font-family="Microsoft YaHei, 'Noto Sans SC', sans-serif" font-size="22" font-weight="800" text-anchor="start">持仓兴趣</text><text x="1035" y="320" fill="#C84C31" font-family="Microsoft YaHei, 'Noto Sans SC', sans-serif" font-size="22" font-weight="800" text-anchor="start">交易量柱</text></svg>