<svg xmlns="http://www.w3.org/2000/svg" width="1200" height="700" viewBox="0 0 1200 700"><rect width="1200" height="700" fill="#F7F1E6"/><rect x="46" y="40" width="172" height="34" rx="17" fill="#1D4ED8" stroke="#1D4ED8" stroke-width="0"/><text x="132.0" y="63" fill="#ffffff" font-family="Microsoft YaHei, 'Noto Sans SC', sans-serif" font-size="18" font-weight="700" text-anchor="middle">三角形、旗形与矩形</text><text x="46" y="112" fill="#253238" font-family="Microsoft YaHei, 'Noto Sans SC', sans-serif" font-size="34" font-weight="800" text-anchor="start">持续形态</text><rect x="90" y="180" width="320" height="360" rx="22" fill="#FFFDF8" stroke="#D9CCB8" stroke-width="2"/><polyline points="120,480 180,410 250,450 320,380 380,430" fill="none" stroke="#1D4ED8" stroke-width="5" stroke-linejoin="round" stroke-linecap="round"/><line x1="120" y1="500" x2="390" y2="330" stroke="#C84C31" stroke-width="3" stroke-linecap="round"/><line x1="120" y1="300" x2="390" y2="520" stroke="#C84C31" stroke-width="3" stroke-linecap="round"/><text x="250" y="560" fill="#1D4ED8" font-family="Microsoft YaHei, 'Noto Sans SC', sans-serif" font-size="24" font-weight="800" text-anchor="middle">三角形</text><rect x="450" y="180" width="300" height="360" rx="22" fill="#FFFDF8" stroke="#D9CCB8" stroke-width="2"/><polyline points="490,300 560,230 630,300" fill="none" stroke="#1D4ED8" stroke-width="5" stroke-linejoin="round" stroke-linecap="round"/><polyline points="630,300 690,325 740,310" fill="none" stroke="#C84C31" stroke-width="5" stroke-linejoin="round" stroke-linecap="round"/><text x="600" y="560" fill="#1D4ED8" font-family="Microsoft YaHei, 'Noto Sans SC', sans-serif" font-size="24" font-weight="800" text-anchor="middle">旗形/三角旗</text><rect x="820" y="180" width="280" height="360" rx="22" fill="#FFFDF8" stroke="#D9CCB8" stroke-width="2"/><line x1="860" y1="280" x2="1060" y2="280" stroke="#C84C31" stroke-width="4" stroke-linecap="round"/><line x1="860" y1="460" x2="1060" y2="460" stroke="#C84C31" stroke-width="4" stroke-linecap="round"/><polyline points="860,350 920,310 980,380 1040,330" fill="none" stroke="#1D4ED8" stroke-width="5" stroke-linejoin="round" stroke-linecap="round"/><text x="960" y="560" fill="#1D4ED8" font-family="Microsoft YaHei, 'Noto Sans SC', sans-serif" font-size="24" font-weight="800" text-anchor="middle">矩形</text></svg>