<svg xmlns="http://www.w3.org/2000/svg" width="1200" height="700" viewBox="0 0 1200 700"><rect width="1200" height="700" fill="#F7F1E6"/><rect x="46" y="40" width="188" height="34" rx="17" fill="#1D4ED8" stroke="#1D4ED8" stroke-width="0"/><text x="140.0" y="63" fill="#ffffff" font-family="Microsoft YaHei, 'Noto Sans SC', sans-serif" font-size="18" font-weight="700" text-anchor="middle">多周期叠加与时间窗口</text><text x="46" y="112" fill="#253238" font-family="Microsoft YaHei, 'Noto Sans SC', sans-serif" font-size="34" font-weight="800" text-anchor="start">时间周期</text><path d="M80 380 C180 260 280 500 380 380 S580 260 680 380 S880 500 980 380" fill="none" stroke="#1D4ED8" stroke-width="6"/><path d="M80 500 C180 430 280 560 380 500 S580 430 680 500 S880 560 980 500" fill="none" stroke="#0F766E" stroke-width="4"/><line x1="380" y1="180" x2="380" y2="580" stroke="#CBD5E1" stroke-width="3" stroke-linecap="round" stroke-dasharray="8 10"/><line x1="680" y1="180" x2="680" y2="580" stroke="#CBD5E1" stroke-width="3" stroke-linecap="round" stroke-dasharray="8 10"/><line x1="980" y1="180" x2="980" y2="580" stroke="#CBD5E1" stroke-width="3" stroke-linecap="round" stroke-dasharray="8 10"/><text x="1050" y="384" fill="#1D4ED8" font-family="Microsoft YaHei, 'Noto Sans SC', sans-serif" font-size="22" font-weight="800" text-anchor="start">长周期</text><text x="1050" y="504" fill="#0F766E" font-family="Microsoft YaHei, 'Noto Sans SC', sans-serif" font-size="22" font-weight="800" text-anchor="start">短周期</text></svg>