<svg xmlns="http://www.w3.org/2000/svg" width="1200" height="700" viewBox="0 0 1200 700"><rect width="1200" height="700" fill="#F7F1E6"/><rect x="46" y="40" width="92" height="34" rx="17" fill="#C84C31" stroke="#C84C31" stroke-width="0"/><text x="92.0" y="63" fill="#ffffff" font-family="Microsoft YaHei, 'Noto Sans SC', sans-serif" font-size="18" font-weight="700" text-anchor="middle">工具矩阵</text><text x="180" y="66" fill="#253238" font-family="Microsoft YaHei, 'Noto Sans SC', sans-serif" font-size="30" font-weight="800" text-anchor="start">趋势、形态、指标、风控</text><rect x="120" y="160" width="220" height="64" rx="18" fill="#FFF8EE" stroke="#D9CCB8" stroke-width="2"/><text x="230" y="200" fill="#C84C31" font-family="Microsoft YaHei, 'Noto Sans SC', sans-serif" font-size="24" font-weight="800" text-anchor="middle">层级</text><rect x="390" y="160" width="220" height="64" rx="18" fill="#FFF8EE" stroke="#D9CCB8" stroke-width="2"/><text x="500" y="200" fill="#C84C31" font-family="Microsoft YaHei, 'Noto Sans SC', sans-serif" font-size="24" font-weight="800" text-anchor="middle">核心问题</text><rect x="690" y="160" width="220" height="64" rx="18" fill="#FFF8EE" stroke="#D9CCB8" stroke-width="2"/><text x="800" y="200" fill="#C84C31" font-family="Microsoft YaHei, 'Noto Sans SC', sans-serif" font-size="24" font-weight="800" text-anchor="middle">代表工具</text><rect x="120" y="260" width="220" height="68" rx="16" fill="#FFFDF8" stroke="#D9CCB8" stroke-width="2"/><text x="230.0" y="302" fill="#253238" font-family="Microsoft YaHei, 'Noto Sans SC', sans-serif" font-size="22" font-weight="500" text-anchor="middle">趋势</text><rect x="390" y="260" width="220" height="68" rx="16" fill="#FFFDF8" stroke="#D9CCB8" stroke-width="2"/><text x="500.0" y="302" fill="#253238" font-family="Microsoft YaHei, 'Noto Sans SC', sans-serif" font-size="22" font-weight="500" text-anchor="middle">市场往哪边走</text><rect x="690" y="260" width="360" height="68" rx="16" fill="#FFFDF8" stroke="#D9CCB8" stroke-width="2"/><text x="870.0" y="302" fill="#253238" font-family="Microsoft YaHei, 'Noto Sans SC', sans-serif" font-size="22" font-weight="500" text-anchor="middle">道氏理论、趋势线、均线</text><rect x="120" y="356" width="220" height="68" rx="16" fill="#FFFDF8" stroke="#D9CCB8" stroke-width="2"/><text x="230.0" y="398" fill="#253238" font-family="Microsoft YaHei, 'Noto Sans SC', sans-serif" font-size="22" font-weight="500" text-anchor="middle">结构</text><rect x="390" y="356" width="220" height="68" rx="16" fill="#FFFDF8" stroke="#D9CCB8" stroke-width="2"/><text x="500.0" y="398" fill="#253238" font-family="Microsoft YaHei, 'Noto Sans SC', sans-serif" font-size="22" font-weight="500" text-anchor="middle">在途中怎样整理或转身</text><rect x="690" y="356" width="360" height="68" rx="16" fill="#FFFDF8" stroke="#D9CCB8" stroke-width="2"/><text x="870.0" y="398" fill="#253238" font-family="Microsoft YaHei, 'Noto Sans SC', sans-serif" font-size="22" font-weight="500" text-anchor="middle">头肩形、三角形、矩形</text><rect x="120" y="452" width="220" height="68" rx="16" fill="#FFFDF8" stroke="#D9CCB8" stroke-width="2"/><text x="230.0" y="494" fill="#253238" font-family="Microsoft YaHei, 'Noto Sans SC', sans-serif" font-size="22" font-weight="500" text-anchor="middle">状态</text><rect x="390" y="452" width="220" height="68" rx="16" fill="#FFFDF8" stroke="#D9CCB8" stroke-width="2"/><text x="500.0" y="494" fill="#253238" font-family="Microsoft YaHei, 'Noto Sans SC', sans-serif" font-size="22" font-weight="500" text-anchor="middle">现在是过热还是衰竭</text><rect x="690" y="452" width="360" height="68" rx="16" fill="#FFFDF8" stroke="#D9CCB8" stroke-width="2"/><text x="870.0" y="494" fill="#253238" font-family="Microsoft YaHei, 'Noto Sans SC', sans-serif" font-size="22" font-weight="500" text-anchor="middle">RSI、动量、背离</text><rect x="120" y="548" width="220" height="68" rx="16" fill="#FFFDF8" stroke="#D9CCB8" stroke-width="2"/><text x="230.0" y="590" fill="#253238" font-family="Microsoft YaHei, 'Noto Sans SC', sans-serif" font-size="22" font-weight="500" text-anchor="middle">生存</text><rect x="390" y="548" width="220" height="68" rx="16" fill="#FFFDF8" stroke="#D9CCB8" stroke-width="2"/><text x="500.0" y="590" fill="#253238" font-family="Microsoft YaHei, 'Noto Sans SC', sans-serif" font-size="22" font-weight="500" text-anchor="middle">该押多少、错了怎么办</text><rect x="690" y="548" width="360" height="68" rx="16" fill="#FFFDF8" stroke="#D9CCB8" stroke-width="2"/><text x="870.0" y="590" fill="#253238" font-family="Microsoft YaHei, 'Noto Sans SC', sans-serif" font-size="22" font-weight="500" text-anchor="middle">止损、仓位、分散</text></svg>