<svg xmlns="http://www.w3.org/2000/svg" width="1200" height="700" viewBox="0 0 1200 700"><rect width="1200" height="700" fill="#F7F1E6"/><rect x="46" y="40" width="140" height="34" rx="17" fill="#1D4ED8" stroke="#1D4ED8" stroke-width="0"/><text x="116.0" y="63" fill="#ffffff" font-family="Microsoft YaHei, 'Noto Sans SC', sans-serif" font-size="18" font-weight="700" text-anchor="middle">阅读与实战流程</text><text x="230" y="66" fill="#253238" font-family="Microsoft YaHei, 'Noto Sans SC', sans-serif" font-size="30" font-weight="800" text-anchor="start">看市场的五个固定动作</text><rect x="120" y="280" width="170" height="120" rx="24" fill="#FFFDF8" stroke="#D9CCB8" stroke-width="2"/><circle cx="156" cy="340" r="22" fill="#FFF8EE" stroke="#1D4ED8" stroke-width="3"/><text x="156" y="348" fill="#1D4ED8" font-family="Microsoft YaHei, 'Noto Sans SC', sans-serif" font-size="20" font-weight="800" text-anchor="middle">1</text><text x="220" y="334" fill="#253238" font-family="Microsoft YaHei, 'Noto Sans SC', sans-serif" font-size="24" font-weight="500" text-anchor="middle">先看周期</text><line x1="290" y1="340" x2="330" y2="340" stroke="#1D4ED8" stroke-width="4" stroke-linecap="round"/><polygon points="330,340 317.87564434701784,347.0 317.87564434701784,333.0" fill="#1D4ED8"/><rect x="330" y="280" width="170" height="120" rx="24" fill="#FFFDF8" stroke="#D9CCB8" stroke-width="2"/><circle cx="366" cy="340" r="22" fill="#FFF8EE" stroke="#1D4ED8" stroke-width="3"/><text x="366" y="348" fill="#1D4ED8" font-family="Microsoft YaHei, 'Noto Sans SC', sans-serif" font-size="20" font-weight="800" text-anchor="middle">2</text><text x="430" y="334" fill="#253238" font-family="Microsoft YaHei, 'Noto Sans SC', sans-serif" font-size="24" font-weight="500" text-anchor="middle">再判趋势</text><line x1="500" y1="340" x2="540" y2="340" stroke="#1D4ED8" stroke-width="4" stroke-linecap="round"/><polygon points="540,340 527.8756443470179,347.0 527.8756443470179,333.0" fill="#1D4ED8"/><rect x="540" y="280" width="170" height="120" rx="24" fill="#FFFDF8" stroke="#D9CCB8" stroke-width="2"/><circle cx="576" cy="340" r="22" fill="#FFF8EE" stroke="#1D4ED8" stroke-width="3"/><text x="576" y="348" fill="#1D4ED8" font-family="Microsoft YaHei, 'Noto Sans SC', sans-serif" font-size="20" font-weight="800" text-anchor="middle">3</text><text x="640" y="334" fill="#253238" font-family="Microsoft YaHei, 'Noto Sans SC', sans-serif" font-size="24" font-weight="500" text-anchor="middle">接着找结构</text><line x1="710" y1="340" x2="750" y2="340" stroke="#1D4ED8" stroke-width="4" stroke-linecap="round"/><polygon points="750,340 737.8756443470179,347.0 737.8756443470179,333.0" fill="#1D4ED8"/><rect x="750" y="280" width="170" height="120" rx="24" fill="#FFFDF8" stroke="#D9CCB8" stroke-width="2"/><circle cx="786" cy="340" r="22" fill="#FFF8EE" stroke="#1D4ED8" stroke-width="3"/><text x="786" y="348" fill="#1D4ED8" font-family="Microsoft YaHei, 'Noto Sans SC', sans-serif" font-size="20" font-weight="800" text-anchor="middle">4</text><text x="850" y="334" fill="#253238" font-family="Microsoft YaHei, 'Noto Sans SC', sans-serif" font-size="24" font-weight="500" text-anchor="middle">然后做验证</text><line x1="920" y1="340" x2="960" y2="340" stroke="#1D4ED8" stroke-width="4" stroke-linecap="round"/><polygon points="960,340 947.8756443470179,347.0 947.8756443470179,333.0" fill="#1D4ED8"/><rect x="960" y="280" width="170" height="120" rx="24" fill="#FFFDF8" stroke="#D9CCB8" stroke-width="2"/><circle cx="996" cy="340" r="22" fill="#FFF8EE" stroke="#1D4ED8" stroke-width="3"/><text x="996" y="348" fill="#1D4ED8" font-family="Microsoft YaHei, 'Noto Sans SC', sans-serif" font-size="20" font-weight="800" text-anchor="middle">5</text><text x="1060" y="334" fill="#253238" font-family="Microsoft YaHei, 'Noto Sans SC', sans-serif" font-size="24" font-weight="500" text-anchor="middle">最后管风险</text></svg>