<svg xmlns="http://www.w3.org/2000/svg" width="1200" height="700" viewBox="0 0 1200 700"><rect width="1200" height="700" fill="#F7F1E6"/><rect x="46" y="40" width="92" height="34" rx="17" fill="#0F766E" stroke="#0F766E" stroke-width="0"/><text x="92.0" y="63" fill="#ffffff" font-family="Microsoft YaHei, 'Noto Sans SC', sans-serif" font-size="18" font-weight="700" text-anchor="middle">指标家族</text><text x="180" y="66" fill="#253238" font-family="Microsoft YaHei, 'Noto Sans SC', sans-serif" font-size="30" font-weight="800" text-anchor="start">技术分析常见工具分组</text><rect x="180" y="180" width="320" height="140" rx="24" fill="#FFFDF8" stroke="#0F766E" stroke-width="3"/><text x="340" y="228" fill="#0F766E" font-family="Microsoft YaHei, 'Noto Sans SC', sans-serif" font-size="30" font-weight="800" text-anchor="middle">趋势组</text><text x="340" y="272" fill="#253238" font-family="Microsoft YaHei, 'Noto Sans SC', sans-serif" font-size="22" font-weight="500" text-anchor="middle">趋势线、通道、均线</text><rect x="690" y="180" width="320" height="140" rx="24" fill="#FFFDF8" stroke="#C84C31" stroke-width="3"/><text x="850" y="228" fill="#C84C31" font-family="Microsoft YaHei, 'Noto Sans SC', sans-serif" font-size="30" font-weight="800" text-anchor="middle">形态组</text><text x="850" y="272" fill="#253238" font-family="Microsoft YaHei, 'Noto Sans SC', sans-serif" font-size="22" font-weight="500" text-anchor="middle">反转形态、持续形态、点数</text><text x="850" y="302" fill="#253238" font-family="Microsoft YaHei, 'Noto Sans SC', sans-serif" font-size="22" font-weight="500" text-anchor="middle">图</text><rect x="180" y="420" width="320" height="140" rx="24" fill="#FFFDF8" stroke="#4C7A67" stroke-width="3"/><text x="340" y="468" fill="#4C7A67" font-family="Microsoft YaHei, 'Noto Sans SC', sans-serif" font-size="30" font-weight="800" text-anchor="middle">动能组</text><text x="340" y="512" fill="#253238" font-family="Microsoft YaHei, 'Noto Sans SC', sans-serif" font-size="22" font-weight="500" text-anchor="middle">RSI、动量、背离</text><rect x="690" y="420" width="320" height="140" rx="24" fill="#FFFDF8" stroke="#6B7280" stroke-width="3"/><text x="850" y="468" fill="#6B7280" font-family="Microsoft YaHei, 'Noto Sans SC', sans-serif" font-size="30" font-weight="800" text-anchor="middle">风险组</text><text x="850" y="512" fill="#253238" font-family="Microsoft YaHei, 'Noto Sans SC', sans-serif" font-size="22" font-weight="500" text-anchor="middle">止损、仓位、分散</text><circle cx="600" cy="350" r="70" fill="#FFF8EE" stroke="#D9CCB8" stroke-width="3"/><text x="600" y="338" fill="#253238" font-family="Microsoft YaHei, 'Noto Sans SC', sans-serif" font-size="22" font-weight="500" text-anchor="middle">一套完整的 交易</text><text x="600" y="368" fill="#253238" font-family="Microsoft YaHei, 'Noto Sans SC', sans-serif" font-size="22" font-weight="500" text-anchor="middle">语言</text><line x1="600" y1="350" x2="500" y2="250" stroke="#94A3B8" stroke-width="4" stroke-linecap="round"/><polygon points="500,250 513.522961568047,253.6234666314353 503.6234666314353,263.522961568047" fill="#94A3B8"/><line x1="600" y1="350" x2="700" y2="250" stroke="#94A3B8" stroke-width="4" stroke-linecap="round"/><polygon points="700,250 696.3765333685647,263.522961568047 686.477038431953,253.6234666314353" fill="#94A3B8"/><line x1="600" y1="350" x2="500" y2="450" stroke="#94A3B8" stroke-width="4" stroke-linecap="round"/><polygon points="500,450 503.6234666314353,436.477038431953 513.522961568047,446.3765333685647" fill="#94A3B8"/><line x1="600" y1="350" x2="700" y2="450" stroke="#94A3B8" stroke-width="4" stroke-linecap="round"/><polygon points="700,450 686.477038431953,446.3765333685647 696.3765333685647,436.477038431953" fill="#94A3B8"/></svg>